<?xml version="1.0" encoding="utf-8"?>
<!-- Generator: Adobe Illustrator 24.3.0, SVG Export Plug-In . SVG Version: 6.00 Build 0)  -->
<svg version="1.0" id="Layer_1" xmlns="http://www.w3.org/2000/svg" xmlns:xlink="http://www.w3.org/1999/xlink" x="0px" y="0px"
	 viewBox="0 0 720 720" style="enable-background:new 0 0 720 720;" xml:space="preserve">
<style type="text/css">
	.st0{fill:#47BD9F;}
</style>
<path class="st0" d="M495.76,312.57c1.84-9.89,2.81-20.11,2.81-30.51c0-92.01-74.84-166.88-166.85-166.88H164.88v162.37
	c-0.03,1.45-0.06,2.93-0.06,4.38v165.7h66.25v166.88h166.85c92.01,0,166.85-74.87,166.85-166.88
	C564.76,392.18,537.55,342.96,495.76,312.57z M198.08,414.38V282.06h0.06V148.44h133.59c73.66,0,133.59,59.93,133.59,133.62
	c0,4.29-0.21,8.53-0.6,12.7c-0.03,0-0.03-0.03-0.06-0.03c-10.64-4.69-21.86-8.25-33.53-10.61c0.06-0.73,0.06-1.45,0.06-2.18
	c0-54.85-44.63-99.48-99.48-99.48c-54.88,0-99.51,44.63-99.51,99.48c0,27.33,11.1,52.13,29.06,70.12
	c7.8,7.89,16.96,14.45,27.06,19.38c11.16,5.44,23.49,8.86,36.5,9.74c0.18,0,0.12,0,0.3,0l73.66,0.24c6.53,0,12.85,0.94,18.81,2.75
	c11.4,3.36,21.56,9.74,29.45,18.2c11.13,11.85,17.96,27.79,17.96,45.29c0,36.5-29.69,66.22-66.22,66.22
	c-36.16,0-65.61-29.12-66.19-65.1c-0.03-0.36-0.03-0.76-0.03-1.12v-0.03h32.11c0,18.38,14.88,33.29,33.26,33.29
	c18.38,0,33.26-14.91,33.26-33.29c0-9.68-4.14-18.41-10.76-24.49c-5.93-5.44-13.82-8.77-22.5-8.77H198.08z M397.91,581.25H264.33
	V447.64h34.95v0.03c0,54.85,44.63,99.48,99.48,99.48s99.48-44.63,99.48-99.48c0-27.61-11.31-52.64-29.54-70.66
	c-7.86-7.83-17.05-14.33-27.18-19.17c-10.98-5.26-23.1-8.56-35.86-9.43c-0.36-0.03-0.88-0.06-1.33-0.09l-72.63-0.15
	c-6.74,0-13.27-1.03-19.41-2.93c-11.37-3.45-21.44-9.92-29.3-18.44c-10.89-11.79-17.54-27.55-17.54-44.84
	c0-36.53,29.72-66.22,66.25-66.22c36.1,0,65.58,29.06,66.19,65.07c0.03,0.39,0.03,0.76,0.03,1.15h-32.96
	c0-18.38-14.91-33.26-33.26-33.26c-18.38,0-33.29,14.88-33.29,33.26c0,9.68,4.14,18.41,10.76,24.49c5.93,5.44,13.82,8.77,22.53,8.77
	h83.67c3.21,0.39,6.35,0.94,9.46,1.57c11.37,2.33,22.19,6.14,32.29,11.16c0.03,0,0.03,0.03,0.06,0.03
	c10.22,5.08,19.71,11.4,28.21,18.84c0.03,0.03,0.03,0.03,0.06,0.06c28.21,24.49,46.05,60.6,46.05,100.78
	C531.5,521.32,471.57,581.25,397.91,581.25z"/>
</svg>
