<?xml version="1.0" encoding="utf-8"?>
<!-- Generator: Adobe Illustrator 24.3.0, SVG Export Plug-In . SVG Version: 6.00 Build 0)  -->
<svg version="1.0" id="Layer_1" xmlns="http://www.w3.org/2000/svg" xmlns:xlink="http://www.w3.org/1999/xlink" x="0px" y="0px"
	 viewBox="0 0 720 720" style="enable-background:new 0 0 720 720;" xml:space="preserve">
<style type="text/css">
	.st0{fill:#FAA80F;}
</style>
<path class="st0" d="M495.76,312.57c1.84-9.89,2.81-20.11,2.81-30.51c0-92.01-74.84-166.88-166.85-166.88H173.88c-4.97,0-9,4.03-9,9
	v153.37c-0.03,1.45-0.06,2.93-0.06,4.38v156.7c0,4.97,4.03,9,9,9h57.25v157.88c0,4.97,4.03,9,9,9h157.85
	c92.01,0,166.85-74.87,166.85-166.88C564.76,392.18,537.55,342.96,495.76,312.57z M198.08,414.38V282.06h0.06V157.44
	c0-4.97,4.03-9,9-9h124.59c73.66,0,133.59,59.93,133.59,133.62c0,4.29-0.21,8.53-0.6,12.7c-0.03,0-0.03-0.03-0.06-0.03
	c-10.64-4.69-21.86-8.25-33.53-10.61c0.06-0.73,0.06-1.45,0.06-2.18c0-54.85-44.63-99.48-99.48-99.48
	c-54.88,0-99.51,44.63-99.51,99.48c0,27.33,11.1,52.13,29.06,70.12c7.8,7.89,16.96,14.45,27.06,19.38
	c11.16,5.44,23.49,8.86,36.5,9.74c0.18,0,0.12,0,0.3,0l73.66,0.24c6.53,0,12.85,0.94,18.81,2.75c11.4,3.36,21.56,9.74,29.45,18.2
	c11.13,11.85,17.96,27.79,17.96,45.29c0,36.5-29.69,66.22-66.22,66.22c-36.16,0-65.61-29.12-66.19-65.1
	c-0.03-0.36-0.03-0.76-0.03-1.12v-0.03h32.11c0,19.12,16.09,34.48,35.48,33.22c16.16-1.05,29.4-13.92,30.89-30.05
	c1.01-10.93-3.28-20.92-10.61-27.65c-5.93-5.44-13.82-8.77-22.5-8.77L198.08,414.38L198.08,414.38z M396.45,581.25H273.33
	c-4.97,0-9-4.03-9-9V447.64h34.95v0.03c0,55.34,45.43,100.28,100.96,99.47c52.91-0.77,96.33-43.46,97.96-96.35
	c0.89-28.84-10.58-55.08-29.49-73.78c-7.86-7.83-17.05-14.33-27.18-19.17c-10.98-5.26-23.1-8.56-35.86-9.43
	c-0.36-0.03-0.88-0.06-1.33-0.09l-72.63-0.15c-6.74,0-13.27-1.03-19.41-2.93c-11.37-3.45-21.44-9.92-29.3-18.44
	c-11.59-12.55-18.38-29.59-17.46-48.2c1.66-33.6,28.79-60.87,62.38-62.76c37.8-2.12,69.35,27.7,69.98,64.96
	c0.03,0.39,0.03,0.76,0.03,1.15h-32.96c0-19.19-16.25-34.57-35.71-33.17c-16.13,1.16-29.3,14.05-30.71,30.17
	c-0.96,10.87,3.33,20.79,10.63,27.5c5.93,5.44,13.82,8.77,22.53,8.77h83.67c3.21,0.39,6.35,0.94,9.46,1.57
	c11.37,2.33,22.19,6.14,32.29,11.16c0.03,0,0.03,0.03,0.06,0.03c10.22,5.08,19.71,11.4,28.21,18.84c0.03,0.03,0.03,0.03,0.06,0.06
	c28.47,24.71,46.38,61.26,46.05,101.89C530.9,522.35,470.04,581.25,396.45,581.25z"/>
</svg>
